HIERARCHY
ROOT Hips
{
  OFFSET -32.5998 29.0326 120.673
  CHANNELS 6 Xposition Yposition Zposition Zrotation Xrotation Yrotation
  JOINT LeftUpLeg
  {
    OFFSET 8.64259 1.95398 -2.38835
    CHANNELS 3 Zrotation Xrotation Yrotation
    JOINT LeftLeg
    {
      OFFSET 43.7702 0 0
      CHANNELS 3 Zrotation Xrotation Yrotation
      JOINT LeftFoot
      {
        OFFSET 40.6238 0 0
        CHANNELS 3 Zrotation Xrotation Yrotation
        JOINT LeftToeBase
        {
          OFFSET 12.7242 0 0
          CHANNELS 3 Zrotation Xrotation Yrotation
          End Site
          {
            OFFSET 0 0 0
          }
        }
      }
    }
  }
  JOINT RightUpLeg
  {
    OFFSET -8.2249 1.95398 -2.59336
    CHANNELS 3 Zrotation Xrotation Yrotation
    JOINT RightLeg
    {
      OFFSET 43.5653 0 0
      CHANNELS 3 Zrotation Xrotation Yrotation
      JOINT RightFoot
      {
        OFFSET 40.6238 0 0
        CHANNELS 3 Zrotation Xrotation Yrotation
        JOINT RightToeBase
        {
          OFFSET 12.7242 0 0
          CHANNELS 3 Zrotation Xrotation Yrotation
          End Site
          {
            OFFSET 0 0 0
          }
        }
      }
    }
  }
  JOINT Spine
  {
    OFFSET 0.165834 0.87714 6.61349
    CHANNELS 3 Zrotation Xrotation Yrotation
    JOINT Spine1
    {
      OFFSET 7.38963 1.71661e-005 0
      CHANNELS 3 Zrotation Xrotation Yrotation
      JOINT Spine2
      {
        OFFSET 11.9445 1.14441e-005 0
        CHANNELS 3 Zrotation Xrotation Yrotation
        JOINT Spine3
        {
          OFFSET 14.7254 4.19617e-005 0
          CHANNELS 3 Zrotation Xrotation Yrotation
          JOINT Spine4
          {
            OFFSET 10.9679 0 0
            CHANNELS 3 Zrotation Xrotation Yrotation
            JOINT RightShoulder
            {
              OFFSET 2.46616 -1.6653 3.69651
              CHANNELS 3 Zrotation Xrotation Yrotation
              JOINT RightArm
              {
                OFFSET 13.0012 0 0
                CHANNELS 3 Zrotation Xrotation Yrotation
                JOINT RightForeArm
                {
                  OFFSET 28.7848 1.62311e-005 0
                  CHANNELS 3 Zrotation Xrotation Yrotation
                  JOINT RightHand
                  {
                    OFFSET 26.5688 1.62095e-005 0
                    CHANNELS 3 Zrotation Xrotation Yrotation
                    End Site
                    {
                      OFFSET 0 0 0
                    }
                  }
                }
              }
            }
            JOINT LeftShoulder
            {
              OFFSET 2.38034 -1.29275 -3.7523
              CHANNELS 3 Zrotation Xrotation Yrotation
              JOINT LeftArm
              {
                OFFSET 16.3182 6.07031e-005 0
                CHANNELS 3 Zrotation Xrotation Yrotation
                JOINT LeftForeArm
                {
                  OFFSET 27.0901 0 0
                  CHANNELS 3 Zrotation Xrotation Yrotation
                  JOINT LeftHand
                  {
                    OFFSET 24.5451 1.51738e-005 0
                    CHANNELS 3 Zrotation Xrotation Yrotation
                    End Site
                    {
                      OFFSET 0 0 0
                    }
                  }
                }
              }
            }
            JOINT Neck
            {
              OFFSET 5.0226 -0.0266342 0
              CHANNELS 3 Zrotation Xrotation Yrotation
              JOINT Head
              {
                OFFSET 6.69364 2.86102e-005 0
                CHANNELS 3 Zrotation Xrotation Yrotation
                End Site
                {
                  OFFSET 0 0 0
                }
              }
            }
          }
        }
      }
    }
  }
}
MOTION
Frames:	12
Frame Time:	0.0416667
-94.23 95.1766 -82.5507 -114.638 52.7448 -77.3367 -169.456 12.0738 83.0223 -39.1123 8.48217 -7.24801 69.5045 5.7374 6.32282 14.3882 -5.09001 -1.91681 173.07 -9.03965 75.0565 -68.3425 -31.8429 -13.6571 56.5512 2.83173 -1.27242 17.8081 2.30607 7.66883 1.40724 8.54124 -89.3846 9.77899 3.0838 0.975394 -1.88856 3.12376 0.838599 -24.4438 2.64806 1.85759 -4.43115 2.64807 1.85758 91.5596 -23.7237 -105.999 34.3919 3.9885 -56.3456 -38.2491 -2.85302 -83.4082 -20.7935 -1.82826 4.85692 -87.7873 -47.5301 81.5911 -31.2048 22.6863 21.6814 5.56389 -12.2541 -0.906239 0.606651 0.0339261 0.30115 18.0937 1.30168 -0.183243 -7.97764 1.27273 1.05608 
-97.3546 96.5959 -84.9457 -112.196 52.1711 -78.8847 -170.572 8.7607 82.6153 -35.3043 8.02455 -6.72562 70.1327 6.4251 6.22811 15.3837 -4.67857 -1.88298 177.149 -2.1007 78.9931 -71.9739 -25.2596 -11.7798 59.9285 0.928265 -2.06235 18.84 2.44076 6.15385 1.17636 8.39127 -89.4469 10.0814 2.59613 0.881598 -1.58723 2.63242 0.766415 -24.136 2.21114 1.62135 -4.12339 2.21113 1.62135 90.8949 -25.919 -106.536 31.8307 -1.49343 -46.8276 -39.8289 0.734361 -85.7967 -22.5559 -2.13901 5.8626 -87.552 -49.4598 82.3025 -26.52 24.0303 12.0636 5.66879 -11.3573 -6.26564 0.329894 0.023199 0.488432 16.6951 2.00167 0.804204 -7.44675 1.70989 0.108314 
-100.241 98.3392 -87.4676 -110.541 49.0147 -78.6096 -172.107 4.20613 83.6615 -30.497 10.1001 -5.08375 69.7958 6.37243 5.91931 15.7724 -5.11985 -0.793971 178.105 2.72238 83.2171 -70.3803 -21.9221 -9.44011 62.7241 -0.814373 -3.08959 17.3 2.764 6.99271 0.811858 8.33721 -89.7429 10.1973 1.73496 0.363114 -1.47251 1.74927 0.286378 -24.015 1.5456 0.867865 -4.00235 1.54562 0.867859 90.717 -27.1553 -106.412 30.7239 -8.27104 -35.9478 -47.5484 2.03048 -85.0752 -12.2857 -0.88295 3.26889 -87.7667 -51.8319 82.3932 -20.8342 24.0575 1.32521 4.86802 -13.4106 -12.6074 -0.14551 -0.0564685 -2.61734 15.1205 2.28049 2.04131 -7.08603 1.6914 -0.810752 
-102.964 99.6424 -89.7428 -108.148 45.0643 -79.0193 -173.41 0.516681 84.6148 -26.0587 13.2184 -3.26035 69.3974 6.46168 6.05817 15.8573 -5.4449 -0.146716 177.313 7.45352 86.4553 -65.2146 -18.0326 -6.84714 64.1923 -1.5018 -3.51639 17.6954 2.65528 6.85502 0.437312 8.24828 -89.9193 10.3773 0.908227 0.0805969 -1.29337 0.910898 0.0405396 -23.8307 0.842003 0.349848 -3.81811 0.842011 0.34985 90.2514 -28.8742 -106.689 30.3096 -13.8485 -25.3816 -40.4804 -0.198251 -78.1861 -11.404 -0.574232 0.864686 -88.0589 -51.0526 81.8258 -18.1868 22.567 -9.90427 4.80781 -13.3746 -18.5634 -0.324968 -0.0849343 -4.37811 13.6603 1.49339 0.408638 -6.70313 1.36109 -0.399735 
-105.854 100.428 -91.9789 -105.991 40.6654 -79.4879 -174.378 -2.53806 85.6535 -23.3645 16.601 -1.58634 69.6229 6.77763 6.52233 16.3662 -5.28511 -0.0244546 175.473 10.7341 88.1406 -56.0607 -13.9048 -3.96222 64.5243 -1.66366 -3.56385 18.2406 2.5875 6.42456 0.0765162 8.23824 -90.1058 10.3978 0.103978 -0.219168 -1.27317 0.0942298 -0.223534 -23.8083 0.165039 -0.177785 -3.7956 0.165042 -0.177787 89.8821 -29.5359 -107.173 31.539 -16.771 -15.4902 -22.2997 -1.20577 -65.8277 -16.8732 -1.91685 7.29935 -88.3664 -50.5545 81.2781 -12.297 24.8246 -24.4217 3.59945 -14.764 -21.1034 0.993436 -0.0737693 -4.24197 13.5045 0.560055 -1.29991 -6.3717 0.864722 0.599521 
-108.316 100.765 -94.2646 -103.939 37.1968 -80.3625 -174.356 -4.68206 86.7438 -21.4249 19.4995 -0.723322 70.1373 7.09173 6.46158 16.6345 -4.8937 -0.51546 174.867 13.3588 89.4226 -44.9217 -10.174 -1.92426 64.0508 -1.48054 -2.89193 17.932 2.66481 6.55776 -0.0964405 8.20596 -90.2154 10.4612 -0.290808 -0.402291 -1.20974 -0.308241 -0.38911 -23.7445 -0.156464 -0.471094 -3.73188 -0.156468 -0.471099 90.1662 -29.3351 -106.683 34.4705 -17.9838 -7.74801 -29.1932 -10.4779 -56.4956 -13.0944 -0.8541 0.83257 -89.3544 -49.2823 79.5471 -6.05953 24.7497 -39.9385 5.50362 -9.78632 -21.2207 0.995089 -0.0984676 -4.69373 13.5206 -0.761567 -2.92863 -5.90716 -0.012974 0.932246 
-110.92 100.655 -96.4602 -102.455 33.7516 -81.4232 -174.551 -6.83999 87.3235 -20.4406 21.9393 0.305801 71.5238 7.98722 6.11773 17.1058 -4.4913 -0.873633 174.89 14.3882 89.4264 -31.8949 -8.65876 -0.890373 62.3362 -0.917485 -2.24361 18.3453 2.47415 6.62922 -0.329487 8.20776 -90.194 10.4573 -0.745161 -0.319624 -1.21343 -0.758521 -0.286512 -23.7495 -0.614664 -0.528808 -3.73689 -0.614682 -0.528806 90.1775 -30.1924 -106.335 36.9779 -17.6337 -2.39747 -25.4184 -18.6826 -41.7609 -9.3964 -0.113565 -3.96879 -89.7057 -46.1882 78.3366 -3.72774 22.372 -52.4967 8.14553 -4.05501 -22.0305 0.865484 -0.0963226 -4.57495 14.1935 -2.02809 -5.10925 -5.95765 -0.668287 1.55116 
-113.77 100.326 -99.0033 -102.058 31.7012 -82.5361 -174.259 -10.1132 87.6961 -18.9167 23.938 0.550472 72.8216 9.12612 5.95321 17.5398 -4.10481 -1.24271 175.15 14.1793 88.8185 -19.2157 -8.84831 -0.639589 59.564 0.39343 -1.79158 18.8516 2.40948 6.2269 -0.481642 8.28542 -90.1018 10.303 -1.00614 -0.115075 -1.3676 -1.01024 -0.0706807 -23.9055 -0.925024 -0.412159 -3.89281 -0.925031 -0.412167 90.2445 -30.6188 -106.043 38.7021 -16.3849 0.49517 -11.8662 -18.5366 -20.3501 -12.0232 -0.218268 -3.16448 -90.0191 -43.6858 77.2489 -2.51625 19.3174 -61.5669 10.0126 -1.54338 -24.7678 2.37192 -0.109385 -4.83657 14.8305 -2.55802 -5.50951 -5.74678 -1.0351 1.13833 
-116.719 99.5353 -101.755 -102.084 30.9223 -83.4983 -173.423 -13.4971 88.3596 -17.7702 24.7967 0.193704 75.3226 10.8662 4.78825 18.3133 -3.548 -1.67173 175.097 14.0665 88.5754 -10.0071 -8.24347 -0.239042 58.8863 0.500122 -0.996052 19.8902 2.06891 5.97967 -0.597808 8.35373 -89.9584 10.1677 -1.17214 0.181583 -1.5027 -1.16302 0.232996 -24.0421 -1.17253 -0.17914 -4.02941 -1.17253 -0.179144 89.7052 -30.6688 -107.086 41.0282 -14.7072 3.64807 -4.08201 -12.538 -3.35633 -9.69872 -0.152563 -3.55225 -89.6875 -40.9108 77.0992 -2.26961 16.3998 -67.8274 12.2906 0.552678 -28.5295 2.33606 -0.0950463 -4.4731 14.9635 -2.6183 -5.83463 -5.36348 -0.995752 1.13994 
-120.045 98.3159 -104.82 -102.234 30.8759 -83.7675 -172.05 -16.6907 89.723 -17.8161 25.8247 -0.306882 78.2667 13.0967 4.71601 19.5903 -3.32182 -1.06696 174.995 14.951 89.1777 -7.54689 -3.54122 0.728987 61.2868 -0.850517 0.202474 22.3925 1.19738 5.60575 -0.641382 8.37765 -89.9236 10.1203 -1.24316 0.256018 -1.55005 -1.23068 0.310483 -24.09 -1.26263 -0.129496 -4.07732 -1.26262 -0.129502 90.0139 -29.3729 -106.973 44.6005 -9.72898 9.03082 -4.85702 -9.83391 0.0425567 -7.65998 -0.184816 -2.54635 -89.4144 -40.0895 77.3454 -1.51469 14.2451 -71.6663 14.1882 0.842427 -33.6288 1.50812 -0.113612 -5.07039 15.0541 -2.33149 -4.66064 -5.37483 -1.01561 0.344391 
-123.737 96.9851 -108.012 -102.476 30.8171 -84.2108 -171.152 -20.1472 90.6263 -17.9834 26.1654 -0.409611 80.6807 14.9239 4.53454 20.9269 -2.65356 -1.28132 174.466 14.1912 89.7376 -8.13041 -0.966393 1.58337 61.695 -1.49811 2.49604 27.708 0.495928 -0.0394174 -0.765199 8.33972 -89.845 10.1977 -1.45391 0.431306 -1.47256 -1.43354 0.494893 -24.0142 -1.5163 -0.0256989 -4.0016 -1.51633 -0.0257014 90.6127 -28.6166 -106.059 46.511 -5.59013 14.7343 -7.02809 -6.75736 -3.82261 -7.81096 -0.126696 -3.51178 -89.1965 -40.9 77.9112 -2.3199 13.2815 -71.911 16.3622 0.563959 -40.4087 0.542025 -0.101173 -4.7884 14.2668 -1.70393 -3.79752 -4.84721 -0.659453 -0.00836708 
-127.543 96.5535 -111.392 -102.438 30.1505 -84.3597 -169.512 -23.5372 92.7312 -16.8431 28.0963 -0.532229 78.8919 14.1068 4.49254 24.7525 -1.79651 0.279223 174.581 15.4749 90.2014 -14.6313 -2.58489 1.35685 61.4606 -0.249071 -0.202227 23.5671 1.59767 2.60042 -0.958418 8.24848 -89.8309 10.3817 -1.83178 0.496073 -1.28804 -1.80818 0.576227 -23.8335 -1.89616 -0.0775844 -3.82091 -1.89616 -0.0775848 92.167 -27.0169 -103.439 48.4304 -3.99761 17.9651 -7.80288 -3.74332 -7.08244 -7.1644 0.0344398 -6.16661 -89.398 -42.4871 77.9623 -4.34249 13.4697 -68.5983 20.0028 0.538583 -48.8412 -0.697279 -0.0933937 -4.57342 13.2031 -1.05472 -2.92414 -4.55751 -0.28499 0.0171758 
